HIERARCHY
ROOT Hips
{
	OFFSET 0.000000 0.000000 0.000000 
	CHANNELS 6 Xposition Yposition Zposition Yrotation Zrotation Xrotation 
	JOINT Lumbar
	{
		OFFSET 0.000000 0.000000 0.000000 
		CHANNELS 3 Zrotation Xrotation Yrotation
		JOINT Neck
		{
			OFFSET 0.000000 0.445665 0.000000 
			CHANNELS 3 Zrotation Xrotation Yrotation
			End Site
			{
				OFFSET 0.000000 0.227535 0.000000 
			}
		}
		JOINT RightShoulder
		{
			OFFSET 0.019635 0.377685 0.194865 
			CHANNELS 3 Zrotation Xrotation Yrotation
			JOINT RightElbow
			{
				OFFSET 0.000000 -0.243375 0.000000 
				CHANNELS 2 Zrotation Yrotation
				JOINT RightWrist
				{
					OFFSET 0.000000 -0.264825 0.000000 
					CHANNELS 2 Zrotation Xrotation
					End Site
					{
						OFFSET 0.006600 -0.176220 0.000990 
					}
				}
			}
		}
		JOINT LeftShoulder
		{
			OFFSET 0.019635 0.377685 -0.194865 
			CHANNELS 3 Zrotation Xrotation Yrotation
			JOINT LeftElbow
			{
				OFFSET 0.000000 -0.243375 0.000000 
				CHANNELS 2 Zrotation Yrotation
				JOINT LeftWrist
				{
					OFFSET 0.000000 -0.264825 0.000000 
					CHANNELS 2 Zrotation Xrotation
					End Site
					{
						OFFSET 0.006600 -0.176220 -0.000990 
					}
				}
			}
		}
	}
	JOINT RightHip
	{
		OFFSET 0.052140 -0.069960 0.075570 
		CHANNELS 3 Zrotation Xrotation Yrotation
		JOINT RightKnee
		{
			OFFSET 0.000000 -0.402270 0.000000 
			CHANNELS 1 Zrotation
			JOINT RightAnkle
			{
				OFFSET 0.000000 -0.404085 0.000000 
				CHANNELS 3 Zrotation Xrotation Yrotation
				End Site
				{
					OFFSET 0.204105 -0.089430 0.008415 
				}
			}
		}
	}
	JOINT LeftHip
	{
		OFFSET 0.052140 -0.069960 -0.075570 
		CHANNELS 3 Zrotation Xrotation Yrotation
		JOINT LeftKnee
		{
			OFFSET 0.000000 -0.402270 0.000000 
			CHANNELS 1 Zrotation
			JOINT LeftAnkle
			{
				OFFSET 0.000000 -0.404085 0.000000 
				CHANNELS 3 Zrotation Xrotation Yrotation
				End Site
				{
					OFFSET 0.204105 -0.089430 -0.008415 
				}
			}
		}
	}
}
MOTION
Frames: 28
Frame Time: 0.02
0.57623 0.5456 0.07176 179.28006 0 -6.92027 30.4039 6.99503 -2.6866 -60.29 9.34711 0.75689 166.38694 -48.58978 52.55262 134.30131 134.77587 -48.66754 -10.5335 166.38694 49.31527 -41.86149 134.30131 -137.85396 -39.65651 12.53395 79.32162 4.9577 1.56456 -10.57859 -28.70771 -2.33171 2.16622 79.22636 1.191 -13.14245 -19.71302 -26.58915 2.63466 -6.28441
0.57608 0.54584 0.07196 179.38219 0 -6.96282 30.34846 7.0158 -2.99199 -60.27599 9.1502 0.85661 166.38693 -48.57659 52.73206 134.3013 134.83952 -48.63175 -10.54702 166.38693 49.47691 -41.94183 134.3013 -137.88992 -39.54664 12.5735 79.1012 4.923 1.57405 -10.94632 -28.72987 -2.32403 2.30309 79.20094 1.00278 -13.09147 -19.22919 -26.67395 2.63396 -6.15981
0.57589 0.54617 0.07223 179.49366 0 -7.01312 30.29518 7.04778 -3.26157 -60.272 8.9631 0.93656 166.38692 -48.55182 52.99201 134.30129 134.87019 -48.63125 -10.53934 166.38692 49.59209 -42.08931 134.30129 -137.88351 -39.42469 12.59717 78.90825 4.91367 1.45808 -11.22961 -28.72935 -2.28495 2.4187 79.12032 0.77186 -13.04416 -18.7225 -26.79749 2.63438 -6.03314
0.57571 0.54646 0.07245 179.59787 0 -7.05786 30.24079 7.07306 -3.53739 -60.26535 8.77904 1.02221 166.38691 -48.53474 53.21136 134.30129 134.92093 -48.61707 -10.54432 166.38691 49.73101 -42.19615 134.30129 -137.90266 -39.31078 12.6321 78.70666 4.89665 1.4082 -11.54372 -28.74872 -2.2622 2.54118 79.06875 0.56423 -12.98661 -18.24158 -26.90494 2.63492 -5.91104
0.57556 0.54677 0.07272 179.71511 0 -7.11129 30.18566 7.10498 -3.87382 -60.25003 8.5485 1.13049 166.3869 -48.50752 53.4489 134.30128 134.95122 -48.59378 -10.53682 166.3869 49.86025 -42.34395 134.30128 -137.89665 -39.18493 12.6509 78.49028 4.86513 1.31926 -11.89283 -28.72839 -2.2321 2.68073 79.00081 0.33794 -12.96319 -17.69736 -27.00591 2.63285 -5.77465
0.57533 0.54704 0.07291 179.80743 0 -7.14848 30.13308 7.12581 -4.06703 -60.2553 8.42394 1.18321 166.38689 -48.49875 53.66609 134.30128 135.0161 -48.59648 -10.55027 166.38689 49.99857 -42.42356 134.30128 -137.93214 -39.08201 12.69881 78.3111 4.86916 1.28085 -12.14847 -28.7847 -2.20921 2.77751 78.95381 0.1409 -12.87066 -17.2788 -27.12915 2.63645 -5.66759
0.5749 0.54713 0.07287 179.82712 0 -7.13829 30.08695 7.11282 -3.89281 -60.31654 8.57433 1.09257 166.38689 -48.54197 53.82135 134.30128 135.18156 -48.67548 -10.62518 166.38688 50.16637 -42.29259 134.30128 -138.09603 -39.03915 12.8352 78.22257 4.96542 1.4288 -12.15811 -29.06269 -2.21544 2.76295 78.97699 0.03972 -12.58233 -17.21476 -27.30988 2.65548 -5.63643
0.5744 0.54717 0.07274 179.82161 0 -7.11159 30.04351 7.08838 -3.57066 -60.39808 8.83498 0.94498 166.38689 -48.60427 53.95101 134.30128 135.38303 -48.7772 -10.7219 166.38689 50.34539 -42.09207 134.30128 -138.30218 -39.02079 13.00048 78.17119 5.09625 1.62922 -12.07759 -29.41748 -2.22953 2.70505 79.02329 -0.03093 -12.22529 -17.27746 -27.5107 2.68015 -5.63554
0.57394 0.54723 0.07265 179.82861 0 -7.09285 29.99901 7.0695 -3.30006 -60.46929 9.05821 0.81832 166.38689 -48.65916 54.08296 134.30128 135.57025 -48.85964 -10.80989 166.38689 50.52426 -41.92729 134.30128 -138.48681 -38.99571 13.14983 78.10613 5.21089 1.79536 -12.04345 -29.73446 -2.2389 2.6653 79.05969 -0.1183 -11.90262 -17.28062 -27.69886 2.70225 -5.62442
0.57344 0.54729 0.07255 179.83156 0 -7.07247 29.95378 7.04949 -3.09093 -60.54508 9.23146 0.71027 166.38689 -48.709 54.25617 134.30128 135.74876 -48.98024 -10.89307 166.38689 50.68289 -41.74691 134.30128 -138.68049 -38.95258 13.31086 78.02883 5.32861 2.00118 -11.98382 -30.06394 -2.25216 2.63155 79.09162 -0.19557 -11.56685 -17.29101 -27.90342 2.72455 -5.59899
0.573 0.54735 0.07246 179.83673 0 -7.05148 29.91078 7.02899 -2.72379 -60.61652 9.5305 0.55236 166.38689 -48.7732 54.33757 134.30128 135.95272 -49.0274 -10.99059 166.38689 50.88414 -41.58224 134.30128 -138.86502 -38.95171 13.45412 77.98513 5.44763 2.13839 -11.95672 -30.38466 -2.25941 2.57509 79.13903 -0.28558 -11.24189 -17.317 -28.0779 2.74761 -5.60982
0.5727 0.54742 0.07241 179.8549 0 -7.03271 29.87271 7.00974 -1.91451 -60.6669 10.18906 0.25126 166.3869 -48.87969 54.16031 134.30128 136.23255 -48.8564 -11.13222 166.3869 51.22468 -41.4722 134.30128 -139.02166 -39.07287 13.54574 78.02785 5.56293 2.07435 -12.04358 -30.67327 -2.24996 2.46812 79.22407 -0.42197 -10.96434 -17.35289 -28.16576 2.77257 -5.71993
0.57246 0.54749 0.07237 179.87598 0 -7.01389 29.83693 6.99038 -0.95892 -60.71289 10.96345 -0.09455 166.38691 -48.99869 53.89323 134.30129 136.53425 -48.61233 -11.2858 166.38691 51.60351 -41.38092 134.30129 -139.16645 -39.23366 13.61774 78.10245 5.67799 1.93977 -12.16634 -30.94854 -2.23407 2.33979 79.32401 -0.57129 -10.69968 -17.40062 -28.2222 2.7979 -5.86433
0.5722 0.54756 0.07232 179.89519 0 -6.99512 29.80042 6.97111 -0.09845 -60.76358 11.65867 -0.40677 166.38692 -49.10724 53.67437 134.30129 136.81661 -48.40798 -11.42753 166.38692 51.94899 -41.28473 134.3013 -139.31176 -39.36891 13.69586 78.16051 5.79229 1.83763 -12.27163 -31.22285 -2.21998 2.22002 79.41716 -0.71208 -10.42887 -17.4445 -28.29199 2.8223 -5.9887
0.5719 0.54764 0.07228 179.91585 0 -6.97559 29.76254 6.95125 0.88656 -60.80369 12.46827 -0.77615 166.38693 -49.23654 53.42351 134.3013 137.1398 -48.17703 -11.59702 166.38693 52.36179 -41.17167 134.3013 -139.47888 -39.53673 13.78674 78.22852 5.91151 1.73615 -12.3784 -31.52928 -2.21057 2.10271 79.51144 -0.8632 -10.15776 -17.4864 -28.36651 2.85009 -6.1327
0.5717 0.54771 0.07224 179.9345 0 -6.95792 29.7282 6.93279 1.64686 -60.86438 13.06754 -1.03744 166.38694 -49.32537 53.21818 134.30131 137.38278 -47.98373 -11.71134 166.38694 52.64379 -41.09813 134.30131 -139.59744 -39.64587 13.84608 78.28294 6.01996 1.61522 -12.49202 -31.76488 -2.19022 1.97683 79.60623 -0.99606 -9.89016 -17.53347 -28.42333 2.87086 -6.2438
0.57179 0.54776 0.0722 179.94707 0 -6.94496 29.70162 6.91775 1.73505 -60.98381 13.04247 -0.98003 166.38693 -49.2992 53.16159 134.3013 137.39816 -47.91303 -11.66964 166.38694 52.55141 -41.1381 134.30131 -139.5825 -39.58289 13.82225 78.29154 6.09866 1.46386 -12.61442 -31.8054 -2.13731 1.82365 79.70194 -1.07723 -9.6394 -17.59257 -28.43986 2.87178 -6.25343
0.57199 0.54781 0.07218 179.95765 0 -6.93404 29.67879 6.90427 1.59508 -61.12361 12.80482 -0.81417 166.38692 -49.23195 53.1538 134.30129 137.33216 -47.88247 -11.57212 166.38694 52.32692 -41.21605 134.30131 -139.51932 -39.45958 13.76738 78.28531 6.16634 1.29428 -12.74314 -31.77511 -2.07421 1.66441 79.79693 -1.13945 -9.39079 -17.65582 -28.43941 2.86567 -6.22905
0.57214 0.54786 0.07215 179.96913 0 -6.92257 29.65522 6.89047 1.56812 -61.25376 12.67296 -0.70323 166.38691 -49.18337 53.12319 134.30129 137.30362 -47.83291 -11.5004 166.38694 52.16512 -41.27089 134.30131 -139.47952 -39.36383 13.72711 78.28596 6.23897 1.12844 -12.87033 -31.77878 -2.01837 1.51403 79.89006 -1.20916 -9.13397 -17.71598 -28.446 2.86297 -6.22156
0.5723 0.54791 0.07212 179.98061 0 -6.90949 29.62768 6.87505 1.50362 -61.38644 12.50326 -0.56835 166.3869 -49.13468 53.0924 134.30128 137.27338 -47.78403 -11.42687 166.38694 51.99269 -41.35035 134.30131 -139.43314 -39.26828 13.68404 78.28698 6.31197 0.9781 -12.99317 -31.77494 -1.9515 1.33729 79.99295 -1.28371 -8.90545 -17.78126 -28.45429 2.85935 -6.20919
0.57245 0.54796 0.07209 179.9917 0 -6.90025 29.60925 6.86332 1.46548 -61.51748 12.36436 -0.4592 166.38689 -49.07699 53.07444 134.30128 137.22769 -47.74418 -11.34419 166.38694 51.81149 -41.38818 134.30131 -139.38921 -39.15825 13.63978 78.2835 6.38144 0.79364 -13.12595 -31.76954 -1.90489 1.21403 80.07517 -1.34391 -8.62164 -17.83727 -28.45553 2.85601 -6.19847
0.57255 0.54798 0.07207 180.0011 0 -6.90138 29.61522 6.86209 1.5169 -61.64991 12.32612 -0.42769 166.38689 -48.99835 53.08323 134.30128 137.15351 -47.71998 -11.24548 166.38693 51.62979 -41.2943 134.3013 -139.3635 -39.01583 13.59882 78.26917 6.44508 0.50572 -13.286 -31.78186 -1.92022 1.24266 80.10006 -1.36551 -8.15618 -17.86116 -28.44037 2.85484 -6.20006
0.57263 0.54799 0.07205 180.01036 0 -6.90628 29.63018 6.86443 1.60819 -61.77805 12.33148 -0.42884 166.38689 -48.91313 53.10316 134.30128 137.06748 -47.70372 -11.1402 166.38692 51.44513 -41.15855 134.3013 -139.34202 -38.862 13.55797 78.25106 6.50531 0.18674 -13.45538 -31.79426 -1.95577 1.32493 80.10407 -1.37386 -7.64008 -17.87634 -28.41903 2.85424 -6.20431
0.57272 0.54801 0.07204 180.02042 0 -6.90925 29.64092 6.86467 1.70746 -61.90089 12.3413 -0.4285 166.38689 -48.83492 53.11624 134.30128 136.99061 -47.68381 -11.04082 166.38691 51.2674 -41.04671 134.30129 -139.31894 -38.71794 13.5179 78.23587 6.56633 -0.10835 -13.61949 -31.80356 -1.97966 1.38092 80.11795 -1.39063 -7.16603 -17.8993 -28.40144 2.8536 -6.20763
0.57283 0.54803 0.07201 180.02735 0 -6.91312 29.65237 6.86687 1.69308 -62.05467 12.24507 -0.36996 166.38689 -48.73838 53.13827 134.30128 136.89528 -47.66546 -10.92739 166.3869 51.06192 -40.91544 134.30128 -139.29296 -38.55264 13.47345 78.21506 6.63023 -0.44429 -13.78837 -31.82321 -2.01319 1.44464 80.13058 -1.39687 -6.6125 -17.90709 -28.37942 2.85186 -6.20895
0.57289 0.54804 0.072 180.04072 0 -6.91612 29.66443 6.86595 1.92231 -62.14322 12.37808 -0.43939 166.38689 -48.67891 53.144 134.30128 136.83627 -47.6452 -10.84212 166.38689 50.91476 -40.8144 134.30128 -139.2745 -38.42942 13.43831 78.20531 6.68738 -0.70362 -13.94922 -31.8224 -2.03212 1.50519 80.14039 -1.42182 -6.21143 -17.94334 -28.36522 2.85258 -6.21508
0.57284 0.54801 0.07205 180.07249 0 -6.91457 29.67587 6.85436 2.85903 -62.04751 13.1714 -0.87373 166.3869 -48.72493 53.10002 134.30128 136.88407 -47.61827 -10.8387 166.38689 50.93397 -40.80593 134.30128 -139.27715 -38.42722 13.43076 78.22636 6.72766 -0.7317 -14.08728 -31.76394 -2.00097 1.543 80.15151 -1.50473 -6.25266 -18.0692 -28.37563 2.86062 -6.23786
0.57276 0.54798 0.07212 180.11065 0 -6.9122 29.6876 6.8397 4.02952 -61.88663 14.18529 -1.43136 166.38691 -48.80876 53.03992 134.30129 136.96863 -47.58909 -10.86353 166.38689 51.01163 -40.82986 134.30128 -139.28708 -38.46748 13.4322 78.25881 6.76117 -0.68357 -14.21653 -31.68546 -1.95531 1.57593 80.15982 -1.60648 -6.4474 -18.22242 -28.39396 2.87104 -6.26491
